<?xml version="1.0" encoding="UTF-8" standalone="no"?>
<!-- Created with Inkscape (http://www.inkscape.org/) -->

<svg
   width="88.724991mm"
   height="40.182213mm"
   viewBox="0 0 88.724991 40.182213"
   version="1.1"
   id="svg5"
   xmlns="http://www.w3.org/2000/svg"
   xmlns:svg="http://www.w3.org/2000/svg">
  <defs
     id="defs2">
    <clipPath
       id="clip1">
      <path
         d="M 0,0 H 251.50391 V 113.90234 H 0 Z m 0,0"
         id="path824" />
    </clipPath>
  </defs>
  <g
     id="layer1"
     transform="translate(-21.793903,-88.292779)">
    <path
       style="fill:#ffffff;fill-opacity:1;fill-rule:nonzero;stroke:none;stroke-width:0.352778"
       d="m 53.488782,121.99546 -12.055079,2.82084 c -1.125857,-2.94211 -2.287543,-6.2177 -3.485058,-9.82679 -1.197515,-3.60908 -1.925119,-5.90489 -2.181435,-6.88605 v -0.0482 c 0.417546,-1.59025 1.056956,-4.01009 1.916852,-7.25812 0.859895,-3.248038 1.675694,-6.406502 2.447395,-9.476771 l 11.800142,2.243446 c -0.724849,2.586578 -1.477257,5.089095 -2.258605,7.507555 -0.781348,2.41845 -1.340831,4.56682 -1.679829,6.44646 l 0.0069,0.16674 c 0.161231,0.48232 0.879189,2.47358 2.155252,5.97518 1.274685,3.50159 2.386762,6.27972 3.333474,8.33575 m -16.853407,2.09737 H 24.86555 c 0,-1.12448 0.0041,-3.0744 0.0124,-5.84839 0.0083,-2.77261 0.0124,-6.55533 0.0124,-11.34677 v -7.136857 c 0,-2.621029 -0.0083,-5.273752 -0.02481,-7.959549 h 11.769824 c 0,2.428104 -0.0041,5.021572 -0.0124,7.777648 -0.0083,2.757458 -0.0124,5.389508 -0.0124,7.898918 0,2.9738 0.0041,6.04821 0.0124,9.22321 0.0083,3.175 0.0124,5.64031 0.0124,7.39179"
       id="path833" />
    <path
       style="fill:#ffffff;fill-opacity:1;fill-rule:nonzero;stroke:none;stroke-width:0.352778"
       d="m 81.035766,122.45297 -11.736751,2.00229 c -0.461645,-2.37987 -0.99908,-4.81625 -1.612307,-7.30774 -0.614602,-2.49149 -1.287085,-4.75836 -2.020203,-6.80062 l 0.191548,-0.53054 c 0.30179,-0.0317 0.54846,-0.21773 0.738628,-0.55535 0.190168,-0.33762 0.350023,-0.7152 0.4768,-1.13275 0.158475,-0.6904 0.265963,-1.26228 0.321085,-1.71152 0.0565,-0.45062 0.08406,-1.00597 0.08406,-1.66467 0,-0.78686 -0.04823,-1.5186 -0.143316,-2.19384 -0.09509,-0.67662 -0.230132,-1.28709 -0.405145,-1.83417 -0.15985,-0.25631 -0.330729,-0.44097 -0.512628,-0.55397 -0.183279,-0.11162 -0.417548,-0.1695 -0.70418,-0.1695 h -0.428568 c 0.01517,1.01424 0.0193,2.05052 0.01101,3.11161 -0.0083,1.06109 -0.01101,3.15984 -0.01101,6.29488 v 9.28384 c 0,2.23518 0.0069,4.0349 0.02342,5.40191 H 53.659658 c -0.01516,-1.15755 -0.01516,-2.74505 0,-4.7625 0.01653,-2.01744 0.0248,-6.17774 0.0248,-12.48089 0,-2.84565 -0.0041,-5.78225 -0.0124,-8.813931 -0.0083,-3.030306 -0.0124,-5.108387 -0.0124,-6.234245 0.883322,-0.01516 1.763889,-0.03169 2.638943,-0.04685 0.875053,-0.01654 1.858975,-0.02481 2.951757,-0.02481 3.533292,0 6.252161,0.08406 8.155231,0.253559 1.903071,0.168121 3.593924,0.486448 5.071181,0.952225 2.184188,0.740006 3.895714,1.941655 5.131812,3.604948 1.236102,1.66467 1.854843,3.365169 1.854843,5.101504 0,1.63848 -0.228756,3.1185 -0.684887,4.43728 -0.456131,1.3174 -1.10932,2.35507 -1.958192,3.11023 v 0.19293 c 0.49747,1.43178 1.11621,3.40099 1.854839,5.90765 0.737249,2.5094 1.525489,4.89617 2.360581,7.16304"
       id="path835" />
    <path
       style="fill:#ffffff;fill-opacity:1;fill-rule:nonzero;stroke:none;stroke-width:0.352778"
       d="m 100.61355,101.25598 c 0,-1.335314 -0.43683,-2.388136 -1.310509,-3.159837 -0.875055,-0.771702 -2.025717,-1.157552 -3.451987,-1.157552 -1.331186,0 -2.458421,0.345887 -3.380328,1.036284 -0.921907,0.691776 -1.383552,1.649512 -1.383552,2.870455 0,0.8034 0.228755,1.47174 0.686266,2.00229 0.457507,0.53054 1.088647,0.98805 1.892046,1.3739 0.512628,0.27423 1.163062,0.55811 1.949923,0.85576 0.78686,0.29766 1.57372,0.56638 2.36058,0.80891 0.797885,-0.66008 1.438671,-1.37115 1.91823,-2.13458 0.479551,-0.76343 0.719331,-1.59577 0.719331,-2.49563 m 0.62701,13.98571 c 0,-0.81993 -0.22875,-1.54615 -0.68764,-2.18143 -0.45751,-0.63528 -1.185113,-1.21819 -2.181435,-1.74873 -0.595312,-0.28939 -1.35461,-0.60634 -2.279276,-0.95223 -0.924662,-0.34588 -1.805227,-0.65594 -2.641699,-0.92879 -1.04455,0.7717 -1.876887,1.62333 -2.495627,2.55626 -0.618737,0.93293 -0.928797,1.96095 -0.928797,3.0868 0,1.28571 0.538815,2.37161 1.616438,3.25493 1.076247,0.8847 2.38814,1.32705 3.931543,1.32705 1.768023,0 3.15433,-0.38172 4.158922,-1.14515 1.004591,-0.76343 1.507571,-1.85346 1.507571,-3.26871 m 7.37939,0.1695 c 0,2.78226 -1.2168,5.04913 -3.65042,6.80062 -2.43361,1.75287 -5.505259,2.62792 -9.21494,2.62792 -3.872286,0 -6.999055,-0.84336 -9.384439,-2.53146 -2.385385,-1.68809 -3.578765,-3.88193 -3.578765,-6.58288 0,-1.59164 0.458886,-3.02342 1.375283,-4.29259 0.916393,-1.27055 2.266872,-2.54111 4.051431,-3.81028 v -0.0496 c -1.415246,-0.85163 -2.503894,-1.82452 -3.267329,-2.91731 -0.763433,-1.09278 -1.145149,-2.49976 -1.145149,-4.21955 0,-2.461175 1.143773,-4.506183 3.432694,-6.13778 2.288921,-1.631598 5.126302,-2.447396 8.516274,-2.447396 3.613217,0 6.51674,0.763433 8.7092,2.290299 2.19108,1.526866 3.288,3.512619 3.288,5.957257 0,1.54341 -0.40101,2.93798 -1.2044,4.18373 -0.80202,1.24574 -1.92512,2.39089 -3.36931,3.43545 v 0.0496 c 1.79696,0.86817 3.15433,1.90859 4.06935,3.12264 0.91502,1.21405 1.37252,2.72025 1.37252,4.52134"
       id="path837" />
  </g>
</svg>
